<svg width="24" height="28" viewBox="0 0 24 28" fill="none" xmlns="http://www.w3.org/2000/svg">
<g clip-path="url(#clip0_28_19)">
<path d="M9 22.1476C4 23.8808 4 19.2589 2 18.6812M16 25.614V21.1423C16.0375 20.5913 15.9731 20.0374 15.811 19.5175C15.6489 18.9975 15.3929 18.5233 15.06 18.1265C18.2 17.7221 21.5 16.3471 21.5 10.0383C21.4997 8.42502 20.9627 6.87366 20 5.70525C20.4559 4.29385 20.4236 2.73379 19.91 1.34913C19.91 1.34913 18.73 0.944721 16 3.05923C13.708 2.34148 11.292 2.34148 9 3.05923C6.27 0.944721 5.09 1.34913 5.09 1.34913C4.57638 2.73379 4.54414 4.29385 5 5.70525C4.03013 6.88232 3.49252 8.44771 3.5 10.0729C3.5 16.3356 6.8 17.7106 9.94 18.1612C9.611 18.554 9.35726 19.0225 9.19531 19.5361C9.03335 20.0497 8.96681 20.597 9 21.1423V25.614" stroke="#FFFCFC" stroke-width="2" stroke-linecap="round" stroke-linejoin="round"/>
</g>
<defs>
<clipPath id="clip0_28_19">
<rect width="24" height="27.7312" fill="white" transform="translate(0 0.193665)"/>
</clipPath>
</defs>
</svg>
