<svg width="24" height="28" viewBox="0 0 24 28" fill="none" xmlns="http://www.w3.org/2000/svg">
<path d="M17 2.50461H7C4.23858 2.50461 2 5.09121 2 8.28195V19.8366C2 23.0274 4.23858 25.614 7 25.614H17C19.7614 25.614 22 23.0274 22 19.8366V8.28195C22 5.09121 19.7614 2.50461 17 2.50461Z" stroke="#FFFCFC" stroke-width="2" stroke-linecap="round" stroke-linejoin="round"/>
<path d="M16 13.3313C16.1234 14.293 15.9813 15.2751 15.5938 16.138C15.2063 17.0009 14.5932 17.7006 13.8416 18.1377C13.0901 18.5748 12.2385 18.7269 11.4078 18.5725C10.5771 18.418 9.80977 17.9649 9.21485 17.2775C8.61993 16.59 8.22774 15.7034 8.09408 14.7436C7.96042 13.7838 8.09208 12.7997 8.47034 11.9313C8.8486 11.063 9.4542 10.3546 10.201 9.90682C10.9478 9.45907 11.7978 9.29482 12.63 9.43742C13.4789 9.58287 14.2649 10.04 14.8717 10.7411C15.4785 11.4423 15.8741 12.3504 16 13.3313Z" stroke="#FFFCFC" stroke-width="2" stroke-linecap="round" stroke-linejoin="round"/>
<path d="M17.5 7.70419H17.51" stroke="#FFFCFC" stroke-width="2" stroke-linecap="round" stroke-linejoin="round"/>
</svg>
