<svg width="24" height="28" viewBox="0 0 24 28" fill="none" xmlns="http://www.w3.org/2000/svg">
<path d="M16 9.28192C17.5913 9.28192 19.1174 10.0123 20.2426 11.3125C21.3679 12.6126 22 14.376 22 16.2147V24.303H18V16.2147C18 15.6018 17.7893 15.014 17.4142 14.5807C17.0391 14.1473 16.5304 13.9038 16 13.9038C15.4696 13.9038 14.9609 14.1473 14.5858 14.5807C14.2107 15.014 14 15.6018 14 16.2147V24.303H10V16.2147C10 14.376 10.6321 12.6126 11.7574 11.3125C12.8826 10.0123 14.4087 9.28192 16 9.28192V9.28192Z" stroke="#FFFCFC" stroke-width="2" stroke-linecap="round" stroke-linejoin="round"/>
<path d="M6 10.4374H2V24.303H6V10.4374Z" stroke="#FFFCFC" stroke-width="2" stroke-linecap="round" stroke-linejoin="round"/>
<path d="M4 6.97099C5.10457 6.97099 6 5.93635 6 4.66006C6 3.38376 5.10457 2.34912 4 2.34912C2.89543 2.34912 2 3.38376 2 4.66006C2 5.93635 2.89543 6.97099 4 6.97099Z" stroke="#FFFCFC" stroke-width="2" stroke-linecap="round" stroke-linejoin="round"/>
</svg>
